<svg id="Layer_1" enable-background="new 0 0 512 512" viewBox="0 0 512 512" xmlns="http://www.w3.org/2000/svg"><g clip-rule="evenodd" fill-rule="evenodd"><path d="m349.83 309.19c20.1-7.43 17.29-11.28 29.76-28.72 5.75 25.43 13.04 27.58 36.43 40.11l40.39.23c3.74-4.08 9.61-5.92 15.28-4.22 7.88 2.35 12.36 10.63 10.01 18.54-2.35 7.88-10.63 12.36-18.54 10.01-4.11-1.22-7.29-4.05-9.07-7.63l-13.72.68-4.68.23 18.26 25.97c8.96 1.33 14.74 10.26 12.13 18.99-2.35 7.88-10.71 12.36-18.54 10.03-7.85-2.35-12.27-10.46-10.12-18.26l-14.17-16.67-10.09 23.73c5.87 11.51-4.9 24.8-17.55 21.03-15.05-4.48-13.61-26.25 1.7-28.94l6.35-26.19c-12.36-10.32-45.1-21.43-53.83-38.92z" fill="#82a83f"/><path d="m342.74 373.22c8.48 0 15.36 6.86 15.36 15.36 0 8.48-6.89 15.36-15.36 15.36-8.42 0-15.25-6.75-15.36-15.14l-28.8-12.95 9.07 33.05c19.39 1.47 18.37 30.7-1.16 30.7-12.73 0-19.73-14.51-12.36-24.49l-18.51-32.46-13.01 21.77c9.84 9.44 3.29 26.45-10.63 26.45-16.84 0-21.23-23.27-5.84-29.59l10.32-24.92-12.19-23.53c-15.96 2.89-20.58-2.58-37.62-4.93 22.59 50.43-26.76 30.05-40.25 24.63 1.76 8.53 6.41 15.99 12.93 21.32 2.24-1.02 4.71-1.62 7.34-1.62 9.64 0 17.46 7.82 17.46 17.49 0 9.64-7.82 17.46-17.46 17.46-8.28 0-15.22-5.75-17.01-13.49l-10.74-4.34 3.43 19.64c5.02 2.83 8.42 8.22 8.42 14.4 0 9.13-7.4 16.53-16.53 16.53s-16.5-7.4-16.5-16.53c0-4.62 1.87-8.79 4.93-11.79-3.57-8.79-8.96-16.47-17.09-22.34l-5.24 12.22c1.76 2.58 2.78 5.7 2.78 9.04 0 8.93-7.23 16.16-16.13 16.16-8.93 0-16.16-7.23-16.16-16.16 0-7.48 5.1-13.78 12.02-15.59l9.61-23.1c-4.96-12.16-104.83-96.15-74.35-128.72 7.4-7.94 28.23-5.02 62.42 9.86 54.77-140.29 106.78-38.52 124.5-114.94 3.09-13.27 14.91-23.13 22.2-34.87-7.71-11.68-9.95-26.11-6.15-39.57s13.25-24.56 25.92-30.46c16.47-.71 31.58 7.94 39.51 21.8 2.49 4.37 7.99 6.01 12.47 3.71 15.93-8.16 31.12-7.2 45.58 2.86 2.18 1.53 4.62 2.01 7.26 1.5 2.61-.54 4.65-1.96 6.09-4.22 9.67-15.34 29.23-19.73 58.71-13.24 10.86 25.6 13.32 53.97 7.03 81.04 12.3 32.71-4.99 52.64-36.42 64.6 10.09 73.64-41.1 131.67-135.78 129.8 12.1 15.14 48.1 24.58 65.23 33.45 1.87-.78 3.91-1.21 6.06-1.21z" fill="#7aa33f"/><path d="m342.74 373.22c8.48 0 15.36 6.86 15.36 15.36 0 8.48-6.89 15.36-15.36 15.36-8.42 0-15.25-6.75-15.36-15.14l-28.8-12.95 9.07 33.05c19.39 1.47 18.37 30.7-1.16 30.7-12.73 0-19.73-14.51-12.36-24.49l-18.51-32.46-13.01 21.77c9.84 9.44 3.29 26.45-10.63 26.45-16.84 0-21.23-23.27-5.84-29.59l10.32-24.92-12.19-23.53c-15.96 2.89-20.58-2.58-37.62-4.93 22.59 50.43-26.76 30.05-40.25 24.63 1.76 8.53 6.41 15.99 12.93 21.32 2.24-1.02 4.71-1.62 7.34-1.62 9.64 0 17.46 7.82 17.46 17.49 0 9.64-7.82 17.46-17.46 17.46-8.28 0-15.22-5.75-17.01-13.49l-10.74-4.34 3.43 19.64c5.02 2.83 8.42 8.22 8.42 14.4 0 9.13-7.4 16.53-16.53 16.53s-16.5-7.4-16.5-16.53c0-4.62 1.87-8.79 4.93-11.79-3.57-8.79-8.96-16.47-17.09-22.34l-5.24 12.22c1.76 2.58 2.78 5.7 2.78 9.04 0 8.93-7.23 16.16-16.13 16.16-8.93 0-16.16-7.23-16.16-16.16 0-7.48 5.1-13.78 12.02-15.59l9.61-23.1c-2.44-5.95-27.61-29.14-49.1-55.05 4.62-11.4 9.67-20.64 15.05-26.39 7.4-7.94 28.23-5.02 62.42 9.86 54.77-140.29 106.78-38.52 124.5-114.94 3.09-13.27 14.88-23.13 22.19-34.87-7.71-11.68-9.95-26.11-6.15-39.57 3.03-10.72 17.15-39.83 33.59-51.22 1.36-.03 2.72-.37 4.03-1.02 3-1.53 5.98-2.75 8.93-3.66.77-.03 1.53-.23 2.3-.62 11.88-2.92 23.33-.54 34.36 7.14 2.18 1.53 4.62 2.01 7.26 1.5 2.61-.54 4.65-1.96 6.09-4.22 9.67-15.34 29.23-19.73 58.71-13.24 10.86 25.6 13.32 53.97 7.03 81.04 12.3 32.71-4.99 52.64-36.42 64.6 10.09 73.64-41.1 131.67-135.78 129.8 12.1 15.14 48.1 24.58 65.23 33.45 1.85-.77 3.89-1.2 6.04-1.2z" fill="#97be3d"/><path d="m429.17 51.86c19.08 0 34.55 19.56 34.55 43.68 0 24.15-15.48 43.71-34.55 43.71s-34.55-19.56-34.55-43.71c0-24.12 15.47-43.68 34.55-43.68z" fill="#7b4726"/></g><path d="m430.28 73.74c-1.9-1.79-1.96-4.76-.17-6.63 1.79-1.9 4.76-1.96 6.63-.17 4.62 4.39 8.14 9.72 10.38 15.53s3.23 12.08 2.81 18.43c-.17 2.61-2.41 4.56-5.02 4.39-2.58-.17-4.54-2.41-4.37-5.02.34-4.99-.43-9.89-2.18-14.43-1.76-4.5-4.51-8.67-8.08-12.1zm8.47 37.22c1.02-2.41 3.77-3.51 6.18-2.49 2.38 1.02 3.51 3.8 2.49 6.18l-.96 2.21c-1.02 2.38-3.77 3.51-6.18 2.49-2.38-1.02-3.49-3.8-2.47-6.18z" fill="#a98671"/><path clip-rule="evenodd" d="m256.85 47.95c19.08 0 34.55 19.56 34.55 43.68s-15.48 43.68-34.55 43.68c-19.08 0-34.55-19.56-34.55-43.68s15.47-43.68 34.55-43.68z" fill="#7b4726" fill-rule="evenodd"/><path d="m259.57 69.12c-1.9-1.79-1.96-4.76-.17-6.63 1.79-1.9 4.76-1.96 6.63-.17 4.62 4.39 8.14 9.72 10.37 15.53 2.24 5.81 3.23 12.1 2.81 18.43-.17 2.61-2.41 4.56-5.02 4.39-2.58-.17-4.54-2.41-4.37-5.02.34-4.96-.43-9.89-2.18-14.43-1.74-4.5-4.49-8.67-8.07-12.1zm8.48 37.22c1.02-2.38 3.77-3.51 6.18-2.49 2.38 1.02 3.49 3.8 2.49 6.18l-.96 2.21c-1.02 2.41-3.77 3.51-6.18 2.49-2.38-1.02-3.49-3.8-2.47-6.18z" fill="#a98671"/><path d="m381.97 235c.43-3.63 3.71-6.24 7.34-5.81s6.24 3.71 5.81 7.34c-2.24 18.65-10.23 35.57-22.25 48.84s-28.06 22.9-46.4 26.93c-3.57.79-7.11-1.47-7.88-5.05-.77-3.6 1.5-7.11 5.07-7.88 15.56-3.46 29.23-11.62 39.43-22.88 10.21-11.27 17.01-25.64 18.88-41.49z" fill="#c3d87a"/><path d="m298.78 318.6c-3.66.37-6.92-2.3-7.29-5.92-.4-3.66 2.27-6.92 5.92-7.31l1.19-.11c1.62-.2 2.64-.31 3.12-.37.4-.03 1.36-.17 2.89-.4 3.63-.54 7 2.01 7.51 5.64.54 3.63-1.98 7-5.64 7.54-.37.06-1.42.17-3.12.4-1.59.2-2.72.34-3.34.4-.39.04-.82.07-1.24.13z" fill="#c3d87a"/><path d="m424.18 89.56c0-6.58 10.01-6.58 10.01 0v5.98c0 6.6-10.01 6.6-10.01 0zm-172.32-3.94c0-6.58 10.01-6.58 10.01 0v6.01c0 6.58-10.01 6.58-10.01 0zm61.86 38.64c0-6.58 10.01-6.58 10.01 0v8.33c0 6.6-10.01 6.6-10.01 0zm-207.27 147.34c2.44 2.13 4.76 4.02 6.97 5.9 11.42 9.47 21 17.38 39.54 47.14 1.45 2.35.74 5.41-1.59 6.89-2.35 1.45-5.44.74-6.89-1.62-17.66-28.38-26.67-35.83-37.42-44.73-2.89-2.38-5.9-4.88-9.3-7.94-16.16-7-29.17-11.23-38.95-12.76-8.84-1.39-14.51-.68-17.06 2.04-19.73 21.12 29.17 72.6 56.66 101.59 9.81 10.29 17.09 17.97 18.65 21.85.48 1.16.51 2.52 0 3.77l-9.61 23.1c-1.7 4.11-5.41 1.84-9.33 6.92-5.56 7.2-.45 17.92 8.84 17.92 9.55 0 13.83-10.83 9.38-17.15-1.02-1.39-1.33-3.26-.6-4.96l5.22-12.25c1.25-2.92 4.9-3.97 7.51-2.1 8.76 6.32 14.83 14.74 18.82 24.52h-.03c.74 1.81.37 3.97-1.11 5.44-7.26 7.14-2.3 19.73 8.08 19.73 11.79 0 15.9-15.79 5.64-21.57-1.28-.71-2.21-1.96-2.49-3.51l-3.4-19.62c-.65-3.74 3.12-6.95 6.77-5.47l10.55 4.27c4.76 1.79 1.84 5.92 7.62 10.54 8.11 6.41 20.21.65 20.21-9.81 0-9.81-10.38-14.85-17.49-11.42-1.73.88-3.88.74-5.47-.57-6.72-5.5-11.68-13.07-14-21.49-18.06-7.2-34.55-18.03-48.16-29.45-19.28-16.13-32.97-33.68-37.36-43.65-1.11-2.52.06-5.47 2.58-6.58s5.47.06 6.55 2.58c3.91 8.87 16.55 24.86 34.64 40 13.49 11.31 29.88 22 47.74 28.72 8.02 3.03 27.38 11.34 36.2 7.4 4.28-1.93 5.16-8.76-2.15-25.14-8.62-18.2-18.79-35.89-27.84-48.53-9.75-13.58-20.55-25.23-34.19-36.6-2.13-1.76-2.41-4.88-.65-7 1.76-2.1 4.9-2.41 7.03-.65 29.59 24.65 46 50.45 63.44 86.02 10.74 1.79 18.45 5.64 27.47 5.27l-20.35-56.66c-3.97-11.03-4.17-22.08 2.92-31.92l17.37-24.06c1.59-2.24 4.71-2.75 6.94-1.13 2.24 1.59 2.75 4.71 1.13 6.94l-17.38 24.07c-5.05 7-4.48 14.83-1.62 22.76l22.34 62.16 11.99 23.13c.74 1.28.88 2.89.26 4.37l-10.32 24.92v-.03c-.51 1.19-1.45 2.18-2.72 2.72-10.32 4.22-7.48 19.98 3.94 19.98 9.52 0 13.75-11.57 7.17-17.86-1.62-1.59-2.01-4.14-.79-6.18l12.93-21.63c2.01-3.49 6.8-3.32 8.7-.03l18.37 32.29c1.05 1.7 1.05 3.91-.2 5.58-4.9 6.69-.34 16.55 8.36 16.55 13.15 0 13.8-19.76.79-20.72v-.03c-2.04-.14-3.88-1.56-4.45-3.66l-9.01-32.85c-1.28-4.28 3-7.74 6.77-6.04l28.8 12.95c4.96 2.21.94 6.66 6.04 11.71 6.52 6.41 17.66 1.81 17.66-7.4 0-7.51-7.71-12.44-14.46-9.55-1.33.57-2.86.57-4.25-.14-18.82-9.72-53.55-18.17-66.81-34.75v-.03l-1.02-1.5c-10.74-16.27-21.2-32.15 1.16-65.71l19.67-29.51c1.53-2.3 4.65-2.92 6.94-1.39 2.3 1.53 2.92 4.65 1.39 6.95l-19.67 29.51c-18.23 27.33-10.52 40.51-1.9 53.6 39.97.31 77.5-10.57 102.39-36.65 20.72-21.74 29.25-50.74 26.42-81.64-18.91 5.33-38.95 4.68-57.52-1.87-6.21-2.18-2.89-11.59 3.32-9.41 9.16 3.23 18.77 4.85 28.4 4.85 8.76 0 20.07-1.64 28.29-4.82 16.58-6.38 30.59-15.34 35.38-29.14-26.25 4.39-53.57.2-77.41-11.42-6.41-3.12-12.87-3.26-19.42-.45-24.63 10.6-52.98 11.96-73.81-7.26-2.04-1.87-2.18-5.02-.31-7.06 1.87-2.01 5.02-2.15 7.06-.28 17.77 16.38 42.07 14.49 63.13 5.41 9.13-3.91 18.82-3.69 27.72.65 23.07 11.25 49.61 14.97 74.83 9.92.09-5.56-1.08-11.68-3.6-18.48-.77-1.93-.06-3.6.4-5.81-14.43 4.73-29.03-.96-38.61-13.07-12.61-15.96-14.71-40.17-5.64-58.88-5.47 2.24-9.86 5.75-13.04 10.8-4.39 6.97-13.69 8.84-20.44 4.14-13.04-9.07-26.28-9.75-40.45-2.52-3.43 1.76-7.26 2.01-10.66.99-10.06-3-7.26-11-21.09-19.93 10.54 18.94 8.96 44.73-4.31 61.46-10.54 13.35-26.99 18.62-42.12 11.68l-.54.68c-5.22 6.55-10.43 13.07-12.39 20.27 1.45 6.35 7.71 14.23 17.38 21.17 9.16 6.58 21.23 12.08 35.12 14.46 6.46 1.13 4.79 10.97-1.7 9.86-21.34-3.69-43.46-15.39-54.91-31.58-8.87 23.36-22.68 23.67-39.66 24.04-21.9.46-50.1 1.09-79.92 75.44zm253.24-147.34c0-6.58 10.01-6.58 10.01 0v8.33c0 6.6-10.01 6.6-10.01 0zm-102.81-81.33c6.66 0 12.93 2.04 18.42 5.61 7.26.96 14.09 3.54 20.04 7.46 6.32 4.14 11.68 9.75 15.51 16.44.6 1.08 1.53 1.76 2.58 2.07 1.08.31 2.24.23 3.29-.31 17.46-8.9 34.64-7.97 50.71 3.2 2.13 1.5 4.9.91 6.26-1.25 3.37-5.36 7.77-9.55 13.21-12.59 4.82-2.69 10.43-4.48 16.84-5.33 6.89-7.11 15.73-11.37 25.43-11.37 11.14 0 21.17 5.61 28.35 14.71 14.97 18.88 14.97 49.04 0 67.95-2.07 2.64-4.37 4.96-6.89 6.95-.23 1.53-.45 3.06-.74 4.59-.34 1.81-.68 3.54-1.05 5.19 6.18 17.35 4.59 31.52-2.78 43.09-6.8 10.72-18.45 18.88-33.39 25.06 3.29 30.25-3.32 59.58-21.46 83.2 4.39 6.46 11.08 10.03 22.37 16.04.65.34 1.39.74 3.71 1.98l37.16.2c.37-.14 7.68-7.31 18.68-4.03 16.89 5.05 19.36 28.12 3.74 36.57-8.79 4.76-19.56 2.24-25.46-5.73l-6.43.31 11.93 16.95c.17.11 7.09 1.42 11.65 8.53 6.24 9.75 2.83 22.71-7.34 28.18-14.31 7.74-31.27-4.11-29.14-20.07l-7.4-8.67-6.09 14.31c0 .34 4.31 10.15-3.46 19.5-12.13 14.63-36.2 5.53-35.04-13.83.45-7.88 5.3-14.94 13.07-17.63l4.9-20.1c-10.77-7.6-26.65-13.83-39.69-23.98-21.32 12.39-46.66 18.6-73.53 19.7 9.18 5.78 21.88 10.8 33.36 15.31 6.97 2.75 13.52 5.33 18.82 7.91.08 0 11.14-3.86 20.1 5.13 12.81 12.78 3.69 34.75-14.4 34.75-9.89 0-18.31-7.14-20.01-16.75l-16.53-7.43 5.41 19.73c22.05 5.16 19.42 40.11-5.1 40.11-15.48 0-24.89-16.47-18.17-29.57l-12.81-22.48-6.8 11.37c9.1 12.93.08 31.95-16.75 31.95-14.77 0-23.27-14.26-19.36-26.73 1.47-4.68 4.62-8.87 9.64-11.54l8.73-21-9.5-18.28c-11.31 1.36-17.4-1.5-26.84-3.8 5.95 17.49 2.01 26.16-6.24 29.85-8.93 4-22.96.43-33.48-3.23 1.59 2.66 3.23 4.82 5.47 7.03 14.23-4.17 28.74 6.49 28.74 21.57 0 18.74-21.71 29.25-36.42 17.6-3.2-2.55-5.7-5.95-7.14-9.89l-.2-.08 1.5 8.65c.11.17 8.9 5.81 8.9 17.4 0 19.11-23.22 28.74-36.74 15.22-7.48-7.51-8.42-19.33-2.18-27.86-2.35-5.05-5.36-9.5-9.33-13.38l-1.62 3.8c6.94 14-3.26 30.5-18.94 30.5-17.49 0-27.44-20.13-16.72-34.02 2.27-2.98 5.33-5.33 8.87-6.75l7.77-18.71c-2.3-3.12-8.19-9.33-15.7-17.23-29.79-31.44-82.86-87.28-56.72-115.26 12.27-13.12 44.67-1.11 63.35 6.69 32.03-79 63.72-79.68 88.38-80.22 15.31-.31 27.33-.57 33.99-29.28 2.27-9.72 8.33-17.38 14.43-25.03-20.66-17.35-22.93-52.92-6.07-74.24 7.18-9.07 17.21-14.71 28.35-14.71zm20.52 20.89c-11.17-14.12-29.28-14.91-41.07 0-12.02 15.22-12.02 40.39 0 55.62 11.48 14.49 29.59 14.49 41.07 0 12.05-15.23 12.05-40.4 0-55.62zm172.32 3.94c-11.54-14.6-29.68-14.43-41.07 0-12.05 15.22-12.05 40.37 0 55.59 11.48 14.51 29.59 14.51 41.07 0 12.02-15.22 12.02-40.37 0-55.59zm-65.17 237.71c-5.13 5.47-10.83 10.46-17.18 14.91 11.59 8.22 31.15 16.95 39.52 23.9v.03c1.39 1.16 2.1 3.09 1.64 4.99l-6.29 25.8c-1.22 5.98-6.72 2.38-10.54 8.25-3.32 5.1-1.76 13.01 5.36 15.11 8.45 2.52 15.53-6.35 11.65-13.97h.03c-.65-1.28-.77-2.81-.14-4.22l10.09-23.7c1.42-3.34 5.95-4.14 8.36-1.28l13.97 16.41c3.52 3.88-1.19 6.29 2.1 12.25 4.56 8.19 17.09 5.98 18.48-3.4.82-5.41-2.95-10.43-8.36-11.23-1.3-.2-2.52-.91-3.35-2.07l-18.28-25.94c-2.24-3.17-.11-7.68 3.85-7.85l18.06-.91c4.76-.4 4.79 3.66 7.31 5.73 9.04 7.4 20.32-2.86 15.31-12.13-3.32-6.15-11.68-6.8-15.93-2.1-.91 1.08-2.27 1.76-3.8 1.76l-40.11-.23c-.88.06-1.79-.11-2.64-.57-11.9-6.38-22.7-11.32-29.11-19.54z"/></svg>