<svg height="512" viewBox="0 0 96 96" width="512" xmlns="http://www.w3.org/2000/svg"><g id="Ostric_Farm" data-name="Ostric Farm"><path d="m31.24 47.82h-4.59c0-45.43 0-37.35 0-44.06a3.45 3.45 0 1 0 -6.9.24v1.26h-8.75a2.1 2.1 0 0 0 -2.1 2.1 2.1 2.1 0 0 0 2.1 2.09h9.73v38.37a6 6 0 0 0 6 6h4.47z" fill="#ff7d9b"/><path d="m23.66 35.32a3 3 0 0 0 3-3c0-26.39 0-20.85 0-27.58a3.46 3.46 0 0 0 -3.66-3.42 3.57 3.57 0 0 0 -3.25 3.68v1.26h-8.68a2.18 2.18 0 0 0 -2.21 1.88 2.1 2.1 0 0 0 2.14 2.31h9.73v21.89a3 3 0 0 0 2.93 2.98z" fill="#ffafaf"/><path d="m75.67 49.76a6.28 6.28 0 0 1 11.48 3.51h-9.85z" fill="#303792"/><path d="m73.87 44.53a6.29 6.29 0 0 1 10-1.49l-7.73 7.72z" fill="#3a5aa6"/><path d="m75.08 49.07a6.64 6.64 0 0 1 2.49 5.2 2.52 2.52 0 0 1 -2.52 2.52h-38.24a7.44 7.44 0 0 1 -5.37-2.29 4 4 0 0 1 -1.1-2.75 22.45 22.45 0 0 1 44.74-2.68z" fill="#303792"/><path d="m45.14 38.38h15.3a6.66 6.66 0 0 1 6.65 6.67 2.52 2.52 0 0 1 -2.52 2.52h-15.5 21.85a6.66 6.66 0 0 1 6.65 6.67 2.52 2.52 0 0 1 -2.52 2.52h-38.24c-3 0-6.47-2-6.47-5a22.49 22.49 0 0 1 17.78-22 6.49 6.49 0 0 1 8 6.15 2.52 2.52 0 0 1 -2.52 2.52z" fill="#3a5aa6"/><path d="m40.9 40.28c3.53-3.28 3.93-3.09 3.93-4a1.28 1.28 0 0 0 -1.83-1.19 15 15 0 0 0 -6.54 6 1.17 1.17 0 0 0 1.75 1.49c.94-.73 1.79-1.5 2.69-2.3z" fill="#3a8cc4"/><path d="m77.57 54.26a2.52 2.52 0 0 1 -2.52 2.53c-52.31 0-34.55 0-38.34 0a4.2 4.2 0 0 1 -2.78-7.18l7.16-7.17a13.83 13.83 0 0 1 9.79-4.06h9.56a6.67 6.67 0 0 1 6.66 6.67 2.52 2.52 0 0 1 -2.52 2.52c-24.54.06-18.11 0 6.33 0a6.65 6.65 0 0 1 6.66 6.69z" fill="#3a418d"/><path d="m53.84 55.76v34.46a4.55 4.55 0 0 1 -4.55 4.54h-3.41a2.27 2.27 0 0 1 0-4.54h3.41v-34.46z" fill="#ff7d9b"/><path d="m53.84 55.76v9.48l-4.55-4.56v-4.92z" fill="#ff4b7d"/><path d="m48.72 55.76 15.37 15.37-4 4a9.17 9.17 0 0 0 -2.69 6.48v3.2a2.27 2.27 0 0 0 2.27 2.27 2.27 2.27 0 0 0 2.27-2.27v-2.72a5.78 5.78 0 0 1 1.66-4.09l4.48-4.47a3.44 3.44 0 0 0 0-4.86l-12.93-12.91z" fill="#ff7d9b"/><path d="m62.12 75.8a2.26 2.26 0 0 0 -3 .53 8.14 8.14 0 0 0 -1.6 4.23 2.3 2.3 0 0 0 2.25 2.52 2.31 2.31 0 0 0 2.3-2 4.67 4.67 0 0 1 .75-2.08 2.26 2.26 0 0 0 -.7-3.2z" fill="#ffa5c8"/><path d="m57.38 84.83a2.27 2.27 0 1 0 4.54 0v-1.72l-4.54-.06z" fill="#ff7d9b"/><path d="m68.08 68.7-12.93-12.94h-6.43l15.37 15.37-3.64 3.64 4 2.44 3.66-3.65a3.44 3.44 0 0 0 -.03-4.86z" fill="#ff7d9b"/><g fill="#231f20"><path d="m43.52 46.62h-2.52a1 1 0 0 0 0 2h2.56a1 1 0 0 0 0-2z"/><path d="m69.66 51.27h-3.73a1 1 0 0 0 0 2h3.73a1 1 0 0 0 0-2z"/><path d="m82.14 46.36 2.27-2.27a1 1 0 0 0 0-1.41 7.1 7.1 0 0 0 -10.13.09 23.29 23.29 0 0 0 -44.19 3.76h-2.68c0-42.74 0-35.35 0-41.86a4.35 4.35 0 0 0 -1.27-3.08c-2.64-2.59-7.44-1.12-7.44 3.53h-7.57a3 3 0 0 0 0 6.08h8.47v36.33a6.82 6.82 0 0 0 6.81 6.81h3.82a8.1 8.1 0 0 0 6.68 3.41h11.48v31.52h-2.32a3.21 3.21 0 0 0 0 6.42h3.32a5.42 5.42 0 0 0 5.42-5.42v-26.13l7.56 7.56-3.21 3.21a9.85 9.85 0 0 0 -2.9 7v3.09a3.21 3.21 0 1 0 6.42 0v-2.63a4.55 4.55 0 0 1 1.32-3.25l4.35-4.35a4.33 4.33 0 0 0 0-6.14l-10.85-10.88h17.39a3.49 3.49 0 0 0 3.49-3.41h8.53a1 1 0 0 0 1-1 7.12 7.12 0 0 0 -5.77-6.98zm.08-2.91-3 3a7 7 0 0 0 -3.45 1.87 22.16 22.16 0 0 0 -.7-3.32 5.09 5.09 0 0 1 7.15-1.55zm-8.62 3.74c-1.72-.69-2.88-.54-6-.54a3.45 3.45 0 0 0 .4-1.53 7.62 7.62 0 0 0 -7.61-7.61h-3.64c.77-1.64.23-4.83-2-7a21.33 21.33 0 0 1 18.85 16.68zm-47.19 5.15a4.82 4.82 0 0 1 -4.81-4.81v-37.33a1 1 0 0 0 -1-1h-9.47a1 1 0 0 1 0-2.08h8.57a1 1 0 0 0 1-1v-1.27a2.36 2.36 0 0 1 4-1.84 2.33 2.33 0 0 1 .68 1.66v42.86a1 1 0 0 0 1 1h3.31a17.36 17.36 0 0 0 -.17 3.81zm26.4 37.93a3.42 3.42 0 0 1 -3.42 3.42h-3.32a1.21 1.21 0 0 1 0-2.42h3.32a1 1 0 0 0 1-1v-30.55l2.42 2.42zm14.19-20.22a2.35 2.35 0 0 1 0 3.31l-4.35 4.35a6.52 6.52 0 0 0 -1.93 4.66v2.63a1.21 1.21 0 1 1 -2.42 0v-3.08a7.83 7.83 0 0 1 2.32-5.6l3.91-3.91a1 1 0 0 0 0-1.42l-13.28-13.24h3.42zm7.93-14.3h-38c-2.38 0-5.42-1.6-5.42-4a21.33 21.33 0 0 1 19.19-21.19 5.6 5.6 0 0 1 4.39 5.44 1.5 1.5 0 0 1 -1.2 1.47h-8.7a1 1 0 0 0 0 2h15.19a5.62 5.62 0 0 1 5.62 5.65 1.51 1.51 0 0 1 -1.5 1.5c-1.59 0 5.74 0-15.4 0a1 1 0 0 0 0 2h21.68a5.62 5.62 0 0 1 5.61 5.6 1.5 1.5 0 0 1 -1.5 1.53zm3.25-3.41a7.59 7.59 0 0 0 -1.18-2.43 5.11 5.11 0 0 1 8.79 2.43z"/></g></g></svg>